Coordinates
version=1
nRows=5
nColumns=63
inDegrees=yes

Units are S.I. units (second, meters, Newtons, ...)
If the header above contains a line with 'inDegrees', this indicates whether rotational values are in degrees (yes) or radians (no).

endheader
time	pelvis_tilt	pelvis_list	pelvis_rotation	pelvis_tx	pelvis_ty	pelvis_tz	hip_flexion_r	hip_adduction_r	hip_rotation_r	knee_angle_r	knee_angle_r_beta	ankle_angle_r	subtalar_angle_r	mtp_angle_r	hip_flexion_l	hip_adduction_l	hip_rotation_l	knee_angle_l	knee_angle_l_beta	ankle_angle_l	subtalar_angle_l	mtp_angle_l	L5_S1_Flex_Ext	L5_S1_Lat_Bending	L5_S1_axial_rotation	L4_L5_Flex_Ext	L4_L5_Lat_Bending	L4_L5_axial_rotation	L3_L4_Flex_Ext	L3_L4_Lat_Bending	L3_L4_axial_rotation	L2_L3_Flex_Ext	L2_L3_Lat_Bending	L2_L3_axial_rotation	L1_L2_Flex_Ext	L1_L2_Lat_Bending	L1_L2_axial_rotation	L1_T12_Flex_Ext	L1_T12_Lat_Bending	L1_T12_axial_rotation	Abs_r3	Abs_r2	Abs_r1	Abs_t1	Abs_t2	neck_flexion	neck_bending	neck_rotation	arm_flex_r	arm_add_r	arm_rot_r	elbow_flex_r	pro_sup_r	wrist_flex_r	wrist_dev_r	arm_flex_l	arm_add_l	arm_rot_l	elbow_flex_l	pro_sup_l	wrist_flex_l	wrist_dev_l
      1.49152542	      3.70818654	     -1.08207121	    101.09470570	      0.23011253	      1.01197209	      0.36882593	     -1.37979942	      5.25987812	    -16.59287934	      4.19782741	      0.07326591	     21.13469612	     -2.25317954	      0.00000000	     -1.21017242	     -5.01290777	      7.60077907	      1.51175618	      0.02638512	     20.51565159	      3.61209465	      0.00000000	     -0.13695294	      0.37167730	     -0.90896056	     -0.25433530	      0.49433081	     -0.96577059	     -0.22499998	      0.90369618	     -0.96577059	     -0.15652351	      0.90369618	     -0.79534049	     -0.12717450	      0.75792435	     -0.73853045	     -0.07825491	      0.57572813	     -0.68172042	     -0.97824112	      4.20448793	     -5.05536593	      0.00000000	      0.00000000	     20.90198474	     -2.85788918	     -7.92742332	     16.80628400	    -40.37895579	     12.37046958	    149.64158534	     68.63566386	     28.00350326	     -5.41529989	     26.87477775	    -38.86798564	     27.35927348	    149.58095316	     89.18629850	    -10.76378090	      9.93294420
      1.50847458	      3.73887388	     -1.10571443	    100.78232101	      0.22990772	      1.01184421	      0.36909705	     -1.29815633	      5.22084089	    -16.40728442	      4.26946718	      0.07451626	     21.42154897	     -2.09000515	      0.00000000	     -1.15283278	     -4.98651109	      7.45557920	      1.64618180	      0.02873129	     20.71038653	      3.42856263	      0.00000000	     -0.14538785	      0.39486104	     -0.94230273	     -0.26999977	      0.52516519	     -1.00119665	     -0.23885770	      0.96006514	     -1.00119665	     -0.16616377	      0.96006514	     -0.82451489	     -0.13500716	      0.80520064	     -0.76562097	     -0.08307462	      0.61163976	     -0.70672704	     -1.03849087	      4.46674710	     -5.24080507	      0.00000000	      0.00000000	     21.13284765	     -2.77791918	     -7.25418121	     17.82207749	    -40.35420170	     12.70565946	    149.65874622	     68.96956650	     29.46207692	     -6.38307098	     26.46287124	    -38.54677034	     26.18898366	    149.62476500	     89.15177606	    -11.45693594	      9.93642168
      1.52542373	      3.84660750	     -1.18476365	    100.50330514	      0.22973821	      1.01154330	      0.36914740	     -1.15558452	      5.22722168	    -16.96418488	      4.37181261	      0.07630252	     21.93182435	     -0.87944725	      0.00000000	     -1.06807346	     -5.02947664	      7.67112248	      1.70071568	      0.02968309	     20.85173228	      2.67930552	      0.00000000	     -0.14161823	      0.42630375	     -1.01514339	     -0.26299922	      0.56698398	     -1.07858985	     -0.23266460	      1.03651493	     -1.07858985	     -0.16185548	      1.03651493	     -0.88825047	     -0.13150669	      0.86931860	     -0.82480401	     -0.08092066	      0.66034451	     -0.76135754	     -1.01156488	      4.82243326	     -5.64592300	      0.00000000	      0.00000000	     21.55359648	     -2.36641660	     -5.89324198	     18.78098819	    -40.17172361	     12.64083568	    149.68263452	     73.28408195	     29.46071310	     -9.97527821	     26.15202291	    -38.60019218	     25.39445708	    149.62079430	     89.11422168	    -12.82907037	      8.75570842
      1.54237288	      3.82292790	     -1.23715010	    100.19880074	      0.22981432	      1.01123797	      0.36931477	     -1.05618203	      5.14618932	    -16.78151065	      4.46857370	      0.07799132	     22.20289055	     -0.74991188	      0.00000000	     -1.01033691	     -4.95944035	      7.56183067	      1.79183332	      0.03127339	     21.09687888	      2.44446838	      0.00000000	     -0.14396403	      0.43514239	     -1.06422463	     -0.26735561	      0.57873938	     -1.13073867	     -0.23651851	      1.05800521	     -1.13073867	     -0.16453649	      1.05800521	     -0.93119655	     -0.13368500	      0.88734237	     -0.86468252	     -0.08226105	      0.67403557	     -0.79816848	     -1.02832070	      4.92241777	     -5.91889815	      0.00000000	      0.00000000	     22.03157766	     -2.11651156	     -5.00849664	     19.63573336	    -39.88251867	     12.58049462	    149.70897193	     73.95870448	     30.10154567	    -11.13993304	     26.31553605	    -38.56739869	     24.58008432	    149.63452056	     89.07348604	    -13.05861079	      9.03777535
      1.55932203	      3.80735189	     -1.29354827	     99.97685245	      0.22998163	      1.01100937	      0.36932324	     -1.00383635	      5.10634576	    -16.68973238	      4.47943820	      0.07818095	     22.24063569	     -0.68671209	      0.00000000	     -0.98094391	     -4.91794445	      7.49248024	      1.78255486	      0.03111145	     21.31222587	      2.32827133	      0.00000000	     -0.13670641	      0.43649285	     -1.11145566	     -0.25387747	      0.58053549	     -1.18092164	     -0.22459495	      1.06128872	     -1.18092164	     -0.15624175	      1.06128872	     -0.97252371	     -0.12694557	      0.89009622	     -0.90305773	     -0.07811404	      0.67612743	     -0.83359175	     -0.97648019	      4.93769444	     -6.18158296	      0.00000000	      0.00000000	     22.10284004	     -2.06783176	     -4.76400513	     20.07347585	    -39.53390707	     12.18445073	    149.73786152	     74.08486401	     30.03024051	    -11.63934961	     26.66886144	    -38.62562324	     24.21765984	    149.59965352	     89.03478836	    -13.08472910	      9.06662545
